<?xml version="1.0" encoding="UTF-8"?>
<svg width="28px" height="28px" viewBox="0 0 28 28" version="1.1" xmlns="http://www.w3.org/2000/svg" xmlns:xlink="http://www.w3.org/1999/xlink">
    <!-- Generator: Sketch 52.5 (67469) - http://www.bohemiancoding.com/sketch -->
    <title>Close</title>
    <desc>Created with Sketch.</desc>
    <g id="final" stroke="none" stroke-width="1" fill="none" fill-rule="evenodd">
        <g id="similar-search-copy-9" transform="translate(-10.000000, -10.000000)">
            <g id="delete">
                <g stroke-width="1" fill-rule="evenodd" transform="translate(10.000000, 10.000000)" fill="#333333">
                    <path d="M1.99978571,28 C1.48777657,28 0.976767442,27.8049983 0.58576046,27.4139948 C-0.195253487,26.6329878 -0.195253487,25.3669765 0.58576046,24.5859695 L24.586189,0.58575523 C25.367203,-0.195251743 26.6332256,-0.195251743 27.4142395,0.58575523 C28.1952535,1.3667622 28.1952535,2.63277351 27.4142395,3.41378048 L3.41381096,27.4139948 C3.02280398,27.8049983 2.51179485,28 1.99978571,28" id="Fill-223"></path>
                    <path d="M26.0002143,28 C25.4882051,28 24.977196,27.8049983 24.586189,27.4139948 L0.58576046,3.41378048 C-0.195253487,2.63277351 -0.195253487,1.3667622 0.58576046,0.58575523 C1.36677441,-0.195251743 2.63279701,-0.195251743 3.41381096,0.58575523 L27.4142395,24.5859695 C28.1952535,25.3669765 28.1952535,26.6329878 27.4142395,27.4139948 C27.0232326,27.8049983 26.5122234,28 26.0002143,28" id="Fill-224"></path>
                </g>
                <rect id="Rectangle" fill-opacity="0" fill="#FFFFFF" fill-rule="nonzero" x="0" y="0" width="48" height="48"></rect>
            </g>
        </g>
    </g>
</svg>