<?xml version="1.0" encoding="UTF-8"?>
<svg width="32px" height="32px" viewBox="0 0 32 32" version="1.1" xmlns="http://www.w3.org/2000/svg" xmlns:xlink="http://www.w3.org/1999/xlink">
    <title>camera</title>
    <g id="camera" stroke="none" stroke-width="1" fill="none" fill-rule="evenodd">
        <g id="camera" transform="translate(0.000000, 0.228571)" fill="#FFFFFF">
            <g transform="translate(3.333333, 5.333333)">
                <path d="M12.6666667,9 C11.3804167,9 10.3333333,10.0470833 10.3333333,11.3333333 C10.3333333,12.6195833 11.3804167,13.6666667 12.6666667,13.6666667 C13.9529167,13.6666667 15,12.6195833 15,11.3333333 C15,10.0470833 13.9529167,9 12.6666667,9 M12.6666667,16 C10.093,16 8,13.907 8,11.3333333 C8,8.75966667 10.093,6.66666667 12.6666667,6.66666667 C15.2403333,6.66666667 17.3333333,8.75966667 17.3333333,11.3333333 C17.3333333,13.907 15.2403333,16 12.6666667,16" id="Fill-206"></path>
                <path d="M2.85863636,4.59259259 C2.58227273,4.59259259 2.3030303,4.73496296 2.3030303,5.05472222 L2.3030303,17.8760926 C2.3030303,18.2010185 2.58284848,18.3703704 2.85863636,18.3703704 L22.474697,18.3703704 C22.7504848,18.3703704 23.030303,18.2010185 23.030303,17.8760926 L23.030303,5.05472222 C23.030303,4.73496296 22.7516364,4.59259259 22.474697,4.59259259 L18.9942424,4.59259259 C18.2353939,4.59259259 17.4817273,4.25962963 16.926697,3.67866667 L15.7613636,2.42833333 C15.6577273,2.32098148 15.4901818,2.2962963 15.3692727,2.2962963 L9.96463636,2.2962963 C9.80687879,2.2962963 9.66524242,2.35485185 9.56390909,2.45990741 L8.40490909,3.66661111 C7.84239394,4.25388889 7.08930303,4.59259259 6.33909091,4.59259259 L2.85863636,4.59259259 Z M22.474697,20.6666667 L2.85863636,20.6666667 C1.25630303,20.6666667 0,19.4410185 0,17.8760926 L0,5.05472222 C0,3.50816667 1.25630303,2.2962963 2.85863636,2.2962963 L6.33909091,2.2962963 C6.45481818,2.2962963 6.61545455,2.20903704 6.74039394,2.07872222 L7.89881818,0.874314815 C8.42736364,0.320907407 9.18160606,0 9.96463636,0 L15.3692727,0 C16.1764848,0 16.9105758,0.303685185 17.4379697,0.854222222 L18.603303,2.10455556 C18.7121212,2.2187963 18.8664242,2.2962963 18.9942424,2.2962963 L22.474697,2.2962963 C24.0776061,2.2962963 25.3333333,3.50816667 25.3333333,5.05472222 L25.3333333,17.8760926 C25.3333333,19.4410185 24.0776061,20.6666667 22.474697,20.6666667 L22.474697,20.6666667 Z" id="Fill-207"></path>
                <path d="M20.6666667,8.33333333 C20.6666667,8.88533333 20.2186667,9.33333333 19.6666667,9.33333333 C19.1146667,9.33333333 18.6666667,8.88533333 18.6666667,8.33333333 C18.6666667,7.78133333 19.1146667,7.33333333 19.6666667,7.33333333 C20.2186667,7.33333333 20.6666667,7.78133333 20.6666667,8.33333333" id="Fill-208"></path>
            </g>
            <rect id="Rectangle" fill-opacity="0" fill-rule="nonzero" x="0" y="0" width="32" height="32"></rect>
        </g>
    </g>
</svg>