<?xml version="1.0" encoding="UTF-8"?>
<svg width="48px" height="48px" viewBox="0 0 48 48" version="1.1" xmlns="http://www.w3.org/2000/svg" xmlns:xlink="http://www.w3.org/1999/xlink">
    <title>upload-white</title>
    <g id="upload-white" stroke="none" stroke-width="1" fill="none" fill-rule="evenodd">
        <g id="upload" fill="#FFFFFF">
            <rect id="Rectangle" fill-opacity="0" fill-rule="nonzero" x="0" y="0" width="48" height="48"></rect>
            <g transform="translate(6.500000, 5.500000)">
                <path d="M17.5,25.3055556 C16.4266667,25.3055556 15.5555556,24.5286458 15.5555556,23.5694444 L15.5555556,2.73611111 C15.5555556,1.77690972 16.4266667,1 17.5,1 C18.5733333,1 19.4444444,1.77690972 19.4444444,2.73611111 L19.4444444,23.5694444 C19.4444444,24.5286458 18.5733333,25.3055556 17.5,25.3055556" id="Fill-13" transform="translate(17.500000, 13.152778) scale(1, -1) translate(-17.500000, -13.152778) "></path>
                <path d="M17.5,11.3055556 C17.0519888,11.3055556 16.6048526,11.1317672 16.2627191,10.7832993 L9.26254406,3.65352114 C8.57915198,2.95747654 8.57915198,1.82918915 9.26254406,1.13314456 C9.94593615,0.437099963 11.0537138,0.437099963 11.7371059,1.13314456 L17.5,7.00273443 L23.2628941,1.13314456 C23.9462862,0.437099963 25.0540639,0.437099963 25.7374559,1.13314456 C26.420848,1.82918915 26.420848,2.95747654 25.7374559,3.65352114 L18.7372809,10.7832993 C18.3951474,11.1317672 17.9480112,11.3055556 17.5,11.3055556" id="Fill-15" transform="translate(17.500000, 5.958333) scale(1, -1) translate(-17.500000, -5.958333) "></path>
                <path d="M28.875,36 L6.125,36 C2.748375,36 0,33.164375 0,29.6805556 L0,25.1666667 C0,24.1690972 0.784,23.3611111 1.75,23.3611111 C2.716,23.3611111 3.5,24.1690972 3.5,25.1666667 L3.5,29.6805556 C3.5,31.17375 4.67775,32.3888889 6.125,32.3888889 L28.875,32.3888889 C30.32225,32.3888889 31.5,31.17375 31.5,29.6805556 L31.5,25.1666667 C31.5,24.1690972 32.284,23.3611111 33.25,23.3611111 C34.216,23.3611111 35,24.1690972 35,25.1666667 L35,29.6805556 C35,33.164375 32.251625,36 28.875,36" id="Fill-17"></path>
            </g>
        </g>
    </g>
</svg>