<?xml version="1.0" encoding="UTF-8"?>
<svg width="18px" height="20px" viewBox="0 0 18 20" version="1.1" xmlns="http://www.w3.org/2000/svg" xmlns:xlink="http://www.w3.org/1999/xlink">
    <title>user icon</title>
    <g id="Page-1" stroke="none" stroke-width="1" fill="none" fill-rule="evenodd">
        <g id="header-and-search-bar-dark-theme" transform="translate(-719.000000, -678.000000)" fill="#FFFFFF">
            <g id="ic/login" transform="translate(719.000000, 678.000000)">
                <path d="M9,2 C7.3455,2 6,3.3455 6,5 C6,6.6545 7.3455,8 9,8 C10.6545,8 12,6.6545 12,5 C12,3.3455 10.6545,2 9,2 M9,10 C6.243,10 4,7.757 4,5 C4,2.243 6.243,0 9,0 C11.757,0 14,2.243 14,5 C14,7.757 11.757,10 9,10" id="Fill-260"></path>
                <path d="M3,20 C1.3455,20 0,18.6545 0,17 L0,14.999 C0,12.242 2.242,10 4.9985,10 C5.551,10 5.9985,10.4475 5.9985,11 C5.9985,11.5525 5.551,12 4.9985,12 C3.345,12 2,13.3455 2,14.999 L2,17 C2,17.552 2.4485,18 3,18 L15,18 C15.5515,18 16,17.552 16,17 L16,15 C16,13.3455 14.6545,12 13,12 C12.448,12 12,11.5525 12,11 C12,10.4475 12.448,10 13,10 C15.757,10 18,12.243 18,15 L18,17 C18,18.6545 16.6545,20 15,20 L3,20 Z" id="Fill-261"></path>
            </g>
        </g>
    </g>
</svg>